<svg xmlns="http://www.w3.org/2000/svg" width="175" height="44.188" viewBox="0 0 175 44.188">
  <defs>
    <style>
      .cls-1 {
        fill: #fff;
        fill-rule: evenodd;
      }
    </style>
  </defs>
  <path id="starcafe" class="cls-1" d="M134.89,32.607a8.394,8.394,0,0,0-5.04,2.2,5.613,5.613,0,0,0-2.34,4.365c-0.045,2.34,1.8,3.6,3.915,5.265,2.115,1.755,2.61,2.835,2.61,3.915a2.82,2.82,0,0,1-2.97,2.79c-1.485,0-2.835-.99-3.96-2.61a0.841,0.841,0,0,0-.765-0.45,2.7,2.7,0,0,0-1.845,2.295c0,1.575,2.07,3.06,4.23,3.06,3.645,0,8.324-3.24,8.324-6.93,0-1.98-1.169-3.15-3.869-5.265-1.62-1.26-2.97-2.34-2.97-3.825a2.478,2.478,0,0,1,2.43-2.565c1.035,0,2.16.63,3.375,2.025a0.783,0.783,0,0,0,1.034.315,2.716,2.716,0,0,0,1.395-2.16C138.444,33.777,136.869,32.607,134.89,32.607Zm21.824,0.54H151.72c0.5-2.34,1.215-5.265,1.755-7.065l-0.405-.225a25.871,25.871,0,0,1-3.555,2.475l-1.035,4.815h-2.7l-1.305,1.44v0.4h3.6l-2.61,11.925c-1.17,5.31-.405,6.525,1.17,6.525,1.935,0,5.445-2.565,6.885-4.77l-0.585-1.125c-1.665,1.665-3.15,2.835-4.05,2.835-0.405,0-.675-0.4-0.45-1.8,0.225-1.35.855-4.23,2.88-13.59,1.35,0,3.644-.18,4.544-0.27Zm21.96,14.579c-1.62,1.665-2.565,2.25-3.105,2.25-0.36,0-.45-0.5-0.225-1.755,0.855-5.085,2.43-12.014,3.24-14.849a29.955,29.955,0,0,0-5.22-.765,13.211,13.211,0,0,0-8.594,3.555,16.594,16.594,0,0,0-5,11.7c0,3.645,1.305,5.58,2.88,5.58a8.243,8.243,0,0,0,4.635-2.16,25.005,25.005,0,0,0,5.4-6.075l-0.63,3.1c-0.81,4.095-.27,5.13.99,5.13s4.05-1.62,6.255-4.59Zm-13.724,2.52c-0.9,0-1.395-1.17-1.395-2.97,0-5.85,2.475-12.689,7.784-12.689a9.041,9.041,0,0,1,3.42.72,39.716,39.716,0,0,1-.99,4.41,15.884,15.884,0,0,1-2.61,5.4C168.325,48.851,166.345,50.246,164.95,50.246Zm21.06-12.239c1.35-1.35,2.475-2.07,2.925-2.07,0.315,0,.45.405-0.045,2.925-0.63,3.285-2.2,10.125-3.285,14.264l0.315,0.315a25.139,25.139,0,0,1,3.285-.9c0.9-4.32,1.71-8.46,3.285-11.294,1.035-1.845,3.239-5.04,4.274-5.04,0.54,0,.99.765,1.485,1.3a0.7,0.7,0,0,0,.99,0,4.268,4.268,0,0,0,1.755-2.88,2.085,2.085,0,0,0-2.07-2.025c-1.8,0-4.9,3.33-7.334,7.47l0.27-1.215c0.855-3.87.99-6.255-.54-6.255-1.305,0-3.69,1.62-5.94,4.275Zm31.859,9.315c-1.35,1.4-4,3.42-6.389,3.42-2.07,0-3.33-1.665-3.33-4.95,0-5.31,2.07-10.98,5.49-10.98a4.266,4.266,0,0,1,3.419,1.935,0.766,0.766,0,0,0,1.035.27,2.6,2.6,0,0,0,1.53-2.34c-0.045-1.035-1.53-2.07-3.51-2.07-2.114,0-5.039,1.4-7.154,3.375a15,15,0,0,0-4.59,10.8c0,4.275,2.07,6.66,5.085,6.66,3.1,0,6.344-1.8,9.089-4.95Zm25.38,0.405c-1.62,1.665-2.565,2.25-3.1,2.25-0.36,0-.45-0.5-0.225-1.755,0.855-5.085,2.43-12.014,3.24-14.849a29.955,29.955,0,0,0-5.22-.765,13.211,13.211,0,0,0-8.594,3.555,16.594,16.594,0,0,0-5,11.7c0,3.645,1.305,5.58,2.88,5.58a8.243,8.243,0,0,0,4.635-2.16,25.005,25.005,0,0,0,5.4-6.075l-0.63,3.1c-0.81,4.095-.27,5.13.99,5.13s4.05-1.62,6.255-4.59Zm-13.724,2.52c-0.9,0-1.4-1.17-1.4-2.97,0-5.85,2.475-12.689,7.784-12.689a9.041,9.041,0,0,1,3.42.72,39.716,39.716,0,0,1-.99,4.41,15.884,15.884,0,0,1-2.61,5.4C232.9,48.851,230.92,50.246,229.525,50.246Zm21.78-17.1-1.26,1.3-0.045.54h3.825c-0.72,4.455-1.44,8.595-2.52,14.714-1.53,8.955-2.3,12.1-4.86,12.1a4.785,4.785,0,0,1-2.925-1.53,0.62,0.62,0,0,0-.855,0,3.6,3.6,0,0,0-1.395,2.475c0,1.125,1.215,1.98,2.88,1.98,1.08,0,3.24-.81,5.22-2.97,2.475-2.565,4.14-5.67,5.67-13.634,0.99-5.31,1.485-8.19,2.34-13.139,1.215,0,3.734-.18,4.5-0.225l0.855-1.62H257.65c1.4-8.325,2.609-10.215,4.319-10.215a4.552,4.552,0,0,1,3.105,1.71,0.72,0.72,0,0,0,1.035,0,3.83,3.83,0,0,0,1.35-2.25c0-.945-1.305-1.845-2.88-1.845-1.8,0-4.454,1.215-6.524,3.555-2.16,2.385-3.195,5.67-3.87,9.045h-2.88Zm28.619,15.164-0.675-1.125c-2.205,2.295-4.634,3.555-6.659,3.555-2.79,0-3.51-2.52-3.51-5.13,0-.45.045-1.35,0.09-1.89,5.04-.9,11.654-3.015,11.654-7.515,0-1.98-1.44-3.6-4-3.6a10.969,10.969,0,0,0-6.074,2.34c-3.555,2.61-5.355,7.6-5.355,11.79,0,5.445,2.925,6.7,5.085,6.7C272.725,53.441,276.279,52.541,279.924,48.311ZM275.11,34.542a2.165,2.165,0,0,1,2.339,2.385c-0.045,2.07-1.575,4.14-8.1,5.31C270.655,35.532,273.76,34.542,275.11,34.542Z" transform="translate(-115.156 -20.563)"/>
</svg>
