<svg xmlns="http://www.w3.org/2000/svg" width="106.68" height="29.12" viewBox="0 0 106.68 29.12">
  <defs>
    <style>
      .cls-1 {
        fill: #fff;
        fill-rule: evenodd;
      }
    </style>
  </defs>
  <path id="R.E.M_白_" data-name="R.E.M（白）" class="cls-1" d="M2927.88,3499.44V3528h3.6v-11.8h5.68l6.92,11.8h4.2l-7.84-12.8a10.6,10.6,0,0,0,2.74-1.4,7.157,7.157,0,0,0,2.14-2.44,7.769,7.769,0,0,0,.84-3.8,7.335,7.335,0,0,0-2.54-6.1q-2.535-2.025-7.86-2.02h-7.88Zm12.88,4.3a4.522,4.522,0,0,1,1.68,3.98,5.053,5.053,0,0,1-1.6,4.06q-1.605,1.38-5.08,1.38h-4.28v-10.6h4.08A9.1,9.1,0,0,1,2940.76,3503.74Zm14.12,24.18a2.48,2.48,0,0,0,1.72.64,2.634,2.634,0,0,0,1.76-.64,2.571,2.571,0,0,0,.76-2.08,2.491,2.491,0,0,0-.76-2.08,2.759,2.759,0,0,0-1.76-.6,2.31,2.31,0,0,0-2.44,2.68A2.661,2.661,0,0,0,2954.88,3527.92Zm29.36-3.08h-12.36v-10.2h11.64v-3.12h-11.64v-8.92h12.36v-3.16h-15.96V3528h15.96v-3.16Zm8.4,3.08a2.48,2.48,0,0,0,1.72.64,2.634,2.634,0,0,0,1.76-.64,2.571,2.571,0,0,0,.76-2.08,2.491,2.491,0,0,0-.76-2.08,2.759,2.759,0,0,0-1.76-.6,2.31,2.31,0,0,0-2.44,2.68A2.661,2.661,0,0,0,2992.64,3527.92Zm28.96,0.08,9.52-25h0.16c-0.05.85-.11,1.96-0.18,3.32s-0.1,2.73-.1,4.12V3528h3.56v-28.56h-5.28l-8.96,23.4h-0.16l-8.8-23.4h-5.32V3528h3.32v-17.32c0-1.52-.03-2.98-0.08-4.38s-0.12-2.51-.2-3.34h0.16l9.4,25.04h2.96Z" transform="translate(-2927.88 -3499.44)"/>
</svg>
