<svg xmlns="http://www.w3.org/2000/svg" width="106.687" height="29.125" viewBox="0 0 106.687 29.125">
  <defs>
    <style>
      .cls-1 {
        fill: #333;
        fill-rule: evenodd;
      }
    </style>
  </defs>
  <path id="R.E.M" class="cls-1" d="M379.88,28.44V57h3.6V45.2h5.68L396.08,57h4.2l-7.84-12.8a10.439,10.439,0,0,0,2.74-1.4,7.193,7.193,0,0,0,2.14-2.44,7.778,7.778,0,0,0,.84-3.8q0-4.08-2.54-6.1t-7.86-2.02h-7.88Zm12.88,4.3a4.522,4.522,0,0,1,1.68,3.98,5.07,5.07,0,0,1-1.6,4.06q-1.6,1.38-5.08,1.38h-4.28V31.56h4.08A9.144,9.144,0,0,1,392.76,32.74Zm14.12,24.18a2.5,2.5,0,0,0,1.72.64,2.655,2.655,0,0,0,1.76-.64,2.578,2.578,0,0,0,.76-2.08,2.508,2.508,0,0,0-.76-2.08,2.761,2.761,0,0,0-1.76-.6,2.31,2.31,0,0,0-2.44,2.68A2.656,2.656,0,0,0,406.88,56.92Zm29.36-3.08H423.88V43.64h11.64V40.52H423.88V31.6h12.36V28.44H420.28V57h15.96V53.84Zm8.4,3.08a2.5,2.5,0,0,0,1.72.64,2.655,2.655,0,0,0,1.76-.64,2.578,2.578,0,0,0,.76-2.08,2.508,2.508,0,0,0-.76-2.08,2.761,2.761,0,0,0-1.76-.6,2.31,2.31,0,0,0-2.44,2.68A2.656,2.656,0,0,0,444.64,56.92ZM473.6,57l9.52-25h0.16q-0.081,1.281-.18,3.32T483,39.44V57h3.56V28.44h-5.28l-8.96,23.4h-0.16l-8.8-23.4h-5.32V57h3.32V39.68q0-2.28-.08-4.38t-0.2-3.34h0.16L470.64,57h2.96Z" transform="translate(-379.875 -28.438)"/>
</svg>
